<svg xmlns="http://www.w3.org/2000/svg" version="1.1" xmlns:xlink="http://www.w3.org/1999/xlink" xmlns:svgjs="http://svgjs.com/svgjs" width="1440" height="560" preserveAspectRatio="none" viewBox="0 0 1440 560"><g mask="url(&quot;#SvgjsMask1002&quot;)" fill="none"><rect width="1440" height="560" x="0" y="0" fill="url(#SvgjsLinearGradient1003)"></rect><path d="M1440 0L1185.78 0L1440 57.77z" fill="rgba(255, 255, 255, .1)"></path><path d="M1185.78 0L1440 57.77L1440 202.29000000000002L613.6899999999999 0z" fill="rgba(255, 255, 255, .075)"></path><path d="M613.6899999999999 0L1440 202.29000000000002L1440 285.65000000000003L556.27 0z" fill="rgba(255, 255, 255, .05)"></path><path d="M556.27 0L1440 285.65000000000003L1440 322.98L244.39 0z" fill="rgba(255, 255, 255, .025)"></path><path d="M0 560L530.2 560L0 390.39z" fill="rgba(0, 0, 0, .1)"></path><path d="M0 390.39L530.2 560L979.28 560L0 196.7z" fill="rgba(0, 0, 0, .075)"></path><path d="M0 196.7L979.28 560L1107.9 560L0 127.80999999999999z" fill="rgba(0, 0, 0, .05)"></path><path d="M0 127.81L1107.9 560L1333.49 560L0 71.2z" fill="rgba(0, 0, 0, .025)"></path></g><defs><mask id="SvgjsMask1002"><rect width="1440" height="560" fill="#ffffff"></rect></mask><linearGradient x1="15.28%" y1="-39.29%" x2="84.72%" y2="139.29%" gradientUnits="userSpaceOnUse" id="SvgjsLinearGradient1003"><stop stop-color="#0e2a47" offset="0"></stop><stop stop-color="#00459e" offset="1"></stop></linearGradient></defs></svg>